<?xml version="1.0" encoding="UTF-8"?>
<svg width="288px" height="303px" viewBox="0 0 288 303" version="1.1" xmlns="http://www.w3.org/2000/svg" xmlns:xlink="http://www.w3.org/1999/xlink">
    <!-- Generator: sketchtool 41.2 (35397) - http://www.bohemiancoding.com/sketch -->
    <title>7F712C1D-2C34-4E47-8995-8C12F3C6BB96</title>
    <desc>Created with sketchtool.</desc>
    <defs></defs>
    <g id="Page-1" stroke="none" stroke-width="1" fill="none" fill-rule="evenodd">
        <g id="Logo-appbar---alt-version-Copy-2" transform="translate(-1403.000000, -1250.000000)">
            <g id="Group-10" transform="translate(1403.000000, 1250.000000)">
                <path d="M288,165.273088 C288,240.613091 226.768351,301.688312 151.23143,301.688312 C75.6974029,301.688312 14.4657534,240.613091 14.4657534,165.273088 C14.4657534,89.9330852 75.6974029,28.8571429 151.23143,28.8571429 C226.768351,28.8571429 288,89.9330852 288,165.273088" id="Fill-1" fill="#A5CAF4"></path>
                <g id="Group-4" transform="translate(148.602740, 184.948052)">
                    <g id="Group-3" transform="translate(94.684932, 9.181818)">
                        <path d="M4.13070408,68.6080134 C5.88807615,68.11399 11.6226454,61.7006747 15.692612,56.4464339 C19.7625785,51.1921931 19.4797104,50.8872124 19.9166788,50.208376 L19.9166788,2.15620979 L15.0285866,0.379569521 L4.13070408,68.6080134 Z" id="Fill-15" fill="#713615"></path>
                        <path d="M0.942734291,71.9110323 C7.98571405,66.6915465 11.9894469,60.8134288 15.0286938,57.1478998 L15.0286938,0.3797171 L0.942734291,2.27716132 L0.942734291,71.9110323 Z" id="Fill-16" fill="#975935"></path>
                    </g>
                    <g id="Group-3" transform="translate(15.780822, 9.181818)">
                        <path d="M6.35826756,106.533463 C8.93981878,106.533463 15.2512097,105.818053 19.9166788,104.021084 L19.9166788,3.18086978 L15.0285866,0.481239929 L6.35826756,106.533463 Z" id="Fill-15" fill="#713615"></path>
                        <path d="M0.942734291,107.460626 C2.72658092,107.460626 9.72782505,107.24165 15.0286938,105.358168 L15.0286938,0.481464177 L0.942734291,3.36465732 L0.942734291,107.460626 Z" id="Fill-16" fill="#975935"></path>
                    </g>
                    <g id="Group-2">
                        <rect id="Rectangle-20" fill="#000000" x="14.4657534" y="9.18181818" width="106.520548" height="41.974026"></rect>
                        <rect id="Rectangle-20" fill="#292726" x="9.20547945" y="9.18181818" width="106.520548" height="41.974026"></rect>
                        <polygon id="Rectangle" fill="#FFCE00" transform="translate(20.511337, 20.445632) rotate(45.000000) translate(-20.511337, -20.445632) " points="26.4375248 -1.42384273 26.4096987 42.315106 14.5851492 30.4359195 14.60345 10.3798144"></polygon>
                        <polygon id="Rectangle" fill="#FFCE00" transform="translate(106.465081, 39.208769) rotate(45.000000) translate(-106.465081, -39.208769) " points="102.39465 14.5044591 114.306312 26.3855035 110.459466 30.2224616 110.459466 52.1150552 98.631039 63.9130791 98.6238496 18.2655676"></polygon>
                        <polygon id="Rectangle" fill="#FFCE00" transform="translate(43.952370, 30.174461) rotate(45.000000) translate(-43.952370, -30.174461) " points="49.8701782 -5.40379314 49.8701782 53.9696684 38.0345617 65.7527156 38.0345617 6.35268815"></polygon>
                        <polygon id="Rectangle" fill="#FFCE00" transform="translate(77.966189, 30.212052) rotate(45.000000) translate(-77.966189, -30.212052) " points="83.8647397 -5.4872955 83.8813449 54.0537699 72.051033 65.9113987 72.051033 6.29604585"></polygon>
                    </g>
                </g>
                <g id="Group" transform="translate(136.109589, 216.428571) scale(-1, 1) translate(-136.109589, -216.428571) translate(28.931507, 129.857143)">
                    <path d="M138.283775,19.3258269 C117.009118,19.3258269 99.5995264,36.633157 99.5995264,57.7850764 L99.5995264,145.968356 L99.5995264,158.079552 C106.990725,159.555578 115.166921,160.061741 122.994764,160.061741 C145.559813,160.061741 167.179174,146.078514 184.966783,134.956407 L183.863952,57.7850764 C183.863952,36.633157 166.456193,19.3258269 145.181535,19.3258269 L138.283775,19.3258269 Z" id="Fill-3" fill="#4D5C3B"></path>
                    <path d="M127.561644,5.62466038 L127.561644,22.774734 L127.563476,22.774734 C127.57569,31.0249358 134.304899,37.7098579 142.604806,37.7098579 C150.904713,37.7098579 157.635144,31.0249358 157.647968,22.774734 L157.6498,22.774734 L157.6498,5.62466038 L127.561644,5.62466038" id="Fill-15" fill="#ECC0A6"></path>
                    <g id="Group-129" transform="translate(158.026819, 21.034436)"></g>
                    <g id="Group-129" transform="translate(27.548504, 34.444339) rotate(106.000000) translate(-27.548504, -34.444339) translate(14.397819, 20.671611)" fill="#F3CFB9">
                        <path d="M1.37150078,13.6958641 L3.45813696,15.712696 L3.46414743,15.7057242 C3.88187537,15.2804466 4.56706939,15.2734748 4.99882176,15.6892907 C5.43007326,16.1075966 5.44259508,16.7893356 5.02636977,17.2156092 L5.0183558,17.2235769 L6.81949448,18.9645261 L6.82700757,18.9570563 C7.24223114,18.5307827 7.92842691,18.524807 8.35867666,18.9416189 C8.79042903,19.3579328 8.80194911,20.0401698 8.38672554,20.4664434 L8.37921245,20.4739131 L10.1112307,22.1491285 L10.117742,22.1401648 C10.53547,21.7148872 11.2211648,21.7089114 11.6519155,22.1257233 C12.0841687,22.5430332 12.0956888,23.2252702 11.6794635,23.6500498 L11.6719504,23.6575195 L13.5827802,25.5055351 L24.2308356,13.8278296 L12.4903766,2.06198113" id="Fill-109" transform="translate(12.801168, 13.783758) rotate(-7.000000) translate(-12.801168, -13.783758) "></path>
                    </g>
                    <path d="M154.479557,30.9844581 C154.660688,30.2174058 155.380193,29.2817303 156.086802,28.8955553 C156.086802,28.8955553 162.228385,25.5183102 165.372282,23.957134 C167.986793,22.6588367 173.617389,20.987013 173.617389,20.987013 L176.948568,21.464613 C176.948568,21.464613 177.705819,28.3324706 179.472997,41.3854118 C180.33403,47.7452765 182.987166,63.1139044 183.90326,68.4901961 C186.808817,85.5420762 184.088967,127.621605 184.088967,127.621605 C183.986404,129.356577 182.497775,130.72263 180.744761,130.672216 L151.25996,129.824279 C150.386178,129.79915 149.702554,129.072407 149.731532,128.211474 C149.731532,128.211474 150.463097,108.179958 150.394857,88.0410039 C150.341809,72.3856984 150.072876,56.8171253 150.394857,52.8532345 C151.002158,45.3767712 154.479557,30.9844581 154.479557,30.9844581 Z" id="Rectangle-16" fill="#FF6003" transform="translate(167.487603, 75.830291) scale(-1, 1) translate(-167.487603, -75.830291) "></path>
                    <polygon id="Rectangle-19" fill="#D8D8D8" points="149.792114 103.623377 185.424658 103.623377 185.424658 114.116883 150.161344 114.116883"></polygon>
                    <path d="M175.505689,26.2274113 C169.637555,23.5540496 164.767204,23.0289749 158.539983,22.2590856 L158.539983,42.668227 C172.700696,45.263264 185.187504,54.9773484 190.557314,69.3453772 C195.69445,83.0886299 192.922616,100.560864 183.852627,112.15292 C180.506037,116.432849 181.707173,120.253397 186.008884,123.580679 C189.232113,126.074319 193.519778,126.267398 196.876749,124.408856 C198.001642,123.786509 197.748834,123.002223 198.587924,121.929356 C211.888783,104.928039 216.600861,82.6708982 209.065539,62.5062344 C203.297558,47.075054 190.561065,33.0853764 175.505689,26.2274113 Z" id="Fill-101" fill="#4D5C3B"></path>
                    <path d="M154.865656,30.7015188 C154.987182,29.9103966 155.539798,28.8033841 156.151362,28.2758403 C156.151362,28.2758403 157.177107,26.6545182 164.39073,23.868203 C171.604353,21.0818877 174.396244,21.1953 174.396244,21.1953 L177.17911,21.1953 C177.17911,21.1953 179.483285,23.8375159 179.483285,29.2690654 C179.483285,31.6407151 184.565293,65.8066382 184.565293,65.8066382 C184.670656,66.5170108 184.436751,67.5896306 184.028194,68.1827253 C184.028194,68.1827253 178.719736,77.128644 170.558471,76.7503199 C162.397206,76.3719958 151.994192,64.1388157 151.994192,64.1388157 C151.994192,64.1388157 151.560503,61.5989414 151.536475,58.7217513 C151.512447,55.8445612 151.89588,53.3842895 151.994192,51.9510568 C152.33312,47.0100733 154.865656,30.7015188 154.865656,30.7015188 Z" id="Path-7" fill="#FF6003" transform="translate(168.062941, 48.978324) scale(-1, 1) translate(-168.062941, -48.978324) "></path>
                    <g id="Page-1" transform="translate(21.041096, 11.805195)" fill="#F3CFB9">
                        <path d="M1.98355866,18.1310535 C2.87998807,18.9401322 4.24858969,18.87976 5.03988519,17.9970455 L19.494029,7.05563828 C20.2853245,6.17246646 18.5359378,4.41437239 17.6399736,3.60666579 C16.743079,2.7975871 9.39270823,6.58350189 8.60187792,7.46667371 L1.792829,15.0671653 C1.28111527,15.6384142 1.13597465,16.4136479 1.33972976,17.1088427 C1.45091119,17.488913 1.66676135,17.8452004 1.98355866,18.1310535 Z" id="Fill-1" transform="translate(10.472579, 11.097311) rotate(108.000000) translate(-10.472579, -11.097311) "></path>
                    </g>
                    <path d="M68.4099194,1.64322326 C62.5417854,-1.03013842 56.4018937,-2.750246 50.1746731,-3.5201353 C50.1746731,-3.5201353 44.1494478,-1.94517306 44.1494478,1.72431202 C44.1494478,2.81812259 45.5629943,5.8390814 51.6569664,11.3529129 C56.0072258,15.2890314 61.3698766,18.03168 66.8113085,22.6284938 C74.3804482,29.022753 80.2221176,37.7770108 82.1920038,43.0478459 C87.3291402,56.7910986 86.8428196,64.3175339 77.7728303,75.9095896 C74.4262412,80.1895184 89.5138152,88.3126976 90.3529052,87.2398314 C103.653765,70.238514 108.235551,56.3733668 100.700229,36.208703 C94.9322486,20.7775226 83.4652955,8.50118833 68.4099194,1.64322326 Z" id="Fill-101" fill="#4D5C3B" transform="translate(74.236839, 41.908167) rotate(-255.000000) translate(-74.236839, -41.908167) "></path>
                    <polygon id="Path-15" fill="#323B27" transform="translate(33.742322, 43.725971) rotate(104.000000) translate(-33.742322, -43.725971) " points="20.6985151 42.0733127 37.6591082 53.5054107 46.7861295 44.8155329 26.2167907 33.9465315"></polygon>
                    <path d="M101.988453,33.0661367 C102.06305,32.2688751 102.638058,31.2304856 103.285109,30.7481605 C103.285109,30.7481605 108.372327,26.7645452 113.138945,24.6216092 C117.905564,22.4786731 122.852159,21.144335 122.852159,21.144335 L125.552617,22.7763013 L127.642221,23.0758934 C127.642221,23.0758934 126.309869,29.6441589 128.077046,42.6971001 C128.938079,49.0569648 133.497335,62.6236129 134.413429,67.9999046 C137.318987,85.0517848 132.81018,128.94313 132.81018,128.94313 C132.642909,130.67267 131.101825,132.034319 129.34881,131.983905 L99.8640094,131.135967 C98.9902277,131.110838 98.3066036,130.384095 98.3355814,129.523162 C98.3355814,129.523162 99.0671462,109.491647 98.9989059,89.3526922 C98.966391,79.7569937 98.9356222,68.5141429 99.6001902,59.9568058 C100.264758,51.3994688 101.988453,33.0661367 101.988453,33.0661367 Z" id="Rectangle-16" fill="#FF6003"></path>
                    <rect id="Rectangle-19" fill="#D8D8D8" transform="translate(120.328767, 49.844156) scale(-1, 1) rotate(90.000000) translate(-120.328767, -49.844156) " x="96" y="44.5974026" width="48.6575342" height="10.4935065"></rect>
                    <path d="M98.8730066,104.935065 L134.724618,104.935065 C134.724618,104.935065 134.559335,107.092368 134.483618,108.34544 C134.4079,109.598511 134.007369,115.428571 134.007369,115.428571 L98.7046715,115.428571 L98.8730066,104.935065 Z" id="Rectangle-19" fill="#D8D8D8"></path>
                    <path d="M98.6975124,73.4545455 L135.066701,73.4545455 C135.066701,73.4545455 135.336981,76.878823 135.39001,78.5999439 C135.443038,80.3210647 135.39001,83.9480519 135.39001,83.9480519 L98.9448193,83.9480519 L98.6975124,73.4545455 Z" id="Rectangle-19" fill="#D8D8D8"></path>
                    <path d="M138.077177,41.9281528 L190.758909,41.9281528 L190.758909,52.3951167 L140.262484,52.3951167 C140.262484,52.3951167 139.069653,49.074575 138.654928,47.4208046 C138.450391,46.605187 138.169908,45.2519164 138.077177,44.0959502 C137.981885,42.9080451 138.077177,41.9281528 138.077177,41.9281528 Z" id="Rectangle-19" fill="#D8D8D8" transform="translate(164.396867, 47.161635) scale(-1, 1) rotate(90.000000) translate(-164.396867, -47.161635) "></path>
                    <path d="M150.520308,72.1428571 L184.877735,72.1428571 C184.877735,72.1428571 184.792789,75.9079421 184.751137,77.7748743 C184.709485,79.6418064 184.64362,82.6363636 184.64362,82.6363636 L149.882547,82.6363636 C149.882547,82.6363636 149.967064,79.1122218 150.081893,77.3896104 C150.196723,75.666999 150.520308,72.1428571 150.520308,72.1428571 Z" id="Rectangle-19" fill="#D8D8D8"></path>
                    <path d="M99.3067325,145.517955 L97.3246874,172.800355 C97.3246874,172.800355 117.700262,171.471453 140.333208,163.84336 C162.966154,156.215267 174.300158,145.668909 174.300158,145.668909 C174.300158,145.668909 125.662086,145.738893 100.237593,145.668909 C99.9829436,145.668208 99.3067325,145.517955 99.3067325,145.517955 Z" id="Path-13" fill="#2E477A"></path>
                    <path d="M98.630137,136.411689 C98.630137,135.689415 99.2198152,135.132733 99.9377336,135.16735 C99.9377336,135.16735 128.405619,136.580652 142.8345,136.580652 C156.462862,136.580652 184.114951,135.169256 184.114951,135.169256 C184.838282,135.133159 185.085487,135.574783 184.642886,136.171412 C184.642886,136.171412 178.184954,145.43011 173.851356,145.597403 C165.176353,145.932289 152.018599,146.783251 142.8345,146.783251 C128.549273,146.783251 99.9436257,145.648357 99.9436257,145.648357 C99.2182059,145.620216 98.630137,145.00316 98.630137,144.28961 L98.630137,136.411689 Z" id="Rectangle-17" fill="#4D3030"></path>
                    <rect id="Rectangle-4" fill="#253B66" x="111.780822" y="135.36623" width="2.63013699" height="11.3655623"></rect>
                    <rect id="Rectangle-4" fill="#253B66" x="170.958904" y="135.36623" width="2.63013699" height="11.3655623"></rect>
                    <g id="Group-6" transform="translate(160.438356, 108.870130)" fill="#F3CFB9">
                        <path d="M11.7694508,12.9724691 L14.3135913,15.4315004 C14.8302363,14.9044783 15.6656622,14.895978 16.1920782,15.4029634 C16.7178835,15.9129848 16.7331508,16.744198 16.2256662,17.263934 L18.4119416,19.3963088 C18.9273651,18.8674653 19.7640124,18.8601793 20.2885963,19.3683791 C20.8150124,19.8759717 20.8290583,20.7077922 20.3227951,21.2275282 L22.4254057,23.2791496 C22.9426613,22.7496989 23.7786979,22.7424129 24.3038926,23.2506127 C24.8309193,23.7594197 24.8449652,24.5912402 24.3374806,25.1091546 L26.658108,27.3714634 C26.658108,27.3714634 33.5306473,20.7818832 36.2910942,17.263934 C39.0515411,13.7459849 39.0068705,11.6340409 39.0068705,11.6340409 L25.7051241,0.0832278826" id="Fill-109"></path>
                        <path d="M18.8899298,19.2153727 L7.43274769,30.9258262 C6.74388775,31.6301414 5.60433753,31.6416776 4.89043924,30.9501129 C4.17470887,30.2597627 4.15455606,29.1267868 4.84463738,28.4218645 L16.3005981,16.7120181 C16.9925115,16.0058815 18.1296189,15.9937381 18.8453493,16.6840884 C19.5598583,17.3774745 19.5806218,18.5080217 18.8899298,19.2153727" id="Fill-103"></path>
                        <path d="M23.0980212,23.2846749 L12.719931,33.8912965 C12.0298496,34.5962188 10.8921315,34.6089694 10.1770118,33.9180119 C9.46189213,33.2246258 9.44112862,32.0940786 10.1318206,31.3873348 L20.5086895,20.7813203 C21.2006029,20.0757908 22.3377104,20.0630403 23.0534408,20.7533905 C23.7685604,21.4467766 23.7887133,22.5773239 23.0980212,23.2846749" id="Fill-105"></path>
                        <path d="M26.9827516,27.0406175 L19.0834579,35.116562 C18.3909338,35.8208771 17.2538263,35.8336277 16.538096,35.1426702 C15.8229763,34.4498913 15.8022128,33.3193441 16.4935155,32.6119931 L24.3934199,24.5372629 C25.0853333,23.8311263 26.2224408,23.8189829 26.9381711,24.5093332 C27.6526801,25.2027193 27.6734436,26.3332665 26.9827516,27.0406175" id="Fill-107"></path>
                        <path d="M14.6833039,15.1452205 L4.30521363,25.7518422 C3.61513231,26.4567645 2.47741416,26.4695151 1.76229449,25.7785576 C1.04717481,25.0851715 1.02641131,23.9546243 1.71710332,23.2478805 L12.0939722,12.641866 C12.7858856,11.9363365 13.9229931,11.9235859 14.6387234,12.6139362 C15.3538431,13.3073223 15.3739959,14.4378696 14.6833039,15.1452205" id="Fill-111"></path>
                    </g>
                    <polygon id="Path-15" fill="#323B27" transform="translate(196.275177, 111.839559) rotate(2.000000) translate(-196.275177, -111.839559) " points="183.23137 109.644397 200.735646 122.220238 209.318984 112.386617 187.214376 101.458879"></polygon>
                    <g id="Group-6" transform="translate(17.869143, 24.121534) rotate(95.000000) translate(-17.869143, -24.121534) translate(-1.199350, 8.381274)" fill="#F3CFB9">
                        <path d="M11.7694508,9.03740412 L14.3135913,11.4964354 C14.8302363,10.9694134 15.6656622,10.960913 16.1920782,11.4678985 C16.7178835,11.9779198 16.7331508,12.8091331 16.2256662,13.3288691 L18.4119416,15.4612439 C18.9273651,14.9324004 19.7640124,14.9251144 20.2885963,15.4333142 C20.8150124,15.9409068 20.8290583,16.7727273 20.3227951,17.2924633 L22.4254057,19.3440847 C22.9426613,18.814634 23.7786979,18.807348 24.3038926,19.3155478 C24.8309193,19.8243548 24.8449652,20.6561752 24.3374806,21.1740897 L26.4074239,22.7709787 C26.4074239,22.7709787 32.8749709,15.546172 35.3611093,11.6590379 C37.8472477,7.77190374 37.2919025,6.81021832 37.2919025,6.81021832 L21.0813917,0.344760011" id="Fill-109"></path>
                        <path d="M18.8899298,15.2803078 L7.43274769,26.9907613 C6.74388775,27.6950764 5.60433753,27.7066126 4.89043924,27.015048 C4.17470887,26.3246977 4.15455606,25.1917218 4.84463738,24.4867995 L16.3005981,12.7769532 C16.9925115,12.0708166 18.1296189,12.0586732 18.8453493,12.7490235 C19.5598583,13.4424096 19.5806218,14.5729568 18.8899298,15.2803078" id="Fill-103"></path>
                        <path d="M23.0980212,19.3496099 L12.719931,29.9562316 C12.0298496,30.6611539 10.8921315,30.6739044 10.1770118,29.982947 C9.46189213,29.2895609 9.44112862,28.1590137 10.1318206,27.4522699 L20.5086895,16.8462553 C21.2006029,16.1407259 22.3377104,16.1279753 23.0534408,16.8183256 C23.7685604,17.5117117 23.7887133,18.6422589 23.0980212,19.3496099" id="Fill-105"></path>
                        <path d="M19.8356741,29.53568 C19.2227001,30.1603776 18.2162118,30.1716868 17.5826972,29.5588369 C16.9497231,28.9443713 16.9313447,27.9416239 17.5432377,27.3142337 L24.5356823,20.1522908 C25.1481158,19.5259775 26.154604,19.5152069 26.7881186,20.1275183 C27.4205522,20.7425223 27.4389306,21.7452697 26.8275782,22.37266 L19.8356741,29.53568 Z" id="Fill-107"></path>
                        <path d="M14.6833039,11.2101556 L4.30521363,21.8167773 C3.61513231,22.5216996 2.47741416,22.5344501 1.76229449,21.8434927 C1.04717481,21.1501066 1.02641131,20.0195593 1.71710332,19.3128155 L12.0939722,8.70680102 C12.7858856,8.00127155 13.9229931,7.98852101 14.6387234,8.67887128 C15.3538431,9.37225739 15.3739959,10.5028046 14.6833039,11.2101556" id="Fill-111"></path>
                    </g>
                    <ellipse id="Oval-6" stroke="#BE8F41" stroke-width="1.31368428" fill="#DA992E" cx="143.342466" cy="141.662338" rx="15.7808219" ry="7.87012987"></ellipse>
                    <g id="Group-5" transform="translate(142.027397, 42.629870) scale(-1, 1) translate(-142.027397, -42.629870) translate(114.410959, 19.675325)">
                        <path d="M32.7999569,20.987013 C32.7999569,20.987013 31.1882701,18.4412735 31.6422531,17.1095664 C32.0055515,16.0438721 42.1133822,2.49668265 42.1133822,2.49668265 L42.1133822,0.553762769 C42.1133822,0.553762769 44.6273305,0.479503269 47.2917238,1.12070331 C49.9561171,1.76190334 52.4653023,3.02789915 53.4082957,3.82722019 C54.9215508,5.10991919 56.3380486,8.77479492 51.9119378,11.4102148" id="Path-9" fill="#E1A23D"></path>
                        <path d="M24.9341265,18.3636364 C24.9341265,18.3636364 20.1582776,19.3179088 19.7515312,26.2576085 C19.3447848,33.1973081 23.9378858,43.2857143 23.9378858,43.2857143 C23.9378858,43.2857143 26.560549,40.3112079 28.0880277,35.0352774 C29.6155063,29.7593469 28.6017696,23.223983 28.6017696,23.223983 C28.6017696,23.223983 26.802695,21.7840908 26.2331448,21.2370464 C25.3072809,20.3477681 24.9341265,18.3636364 24.9341265,18.3636364 Z" id="Path-10-Copy" fill="#E1A23D" transform="translate(24.328767, 30.824675) rotate(16.000000) translate(-24.328767, -30.824675) "></path>
                        <path d="M25.5088668,20.547111 C25.5088668,20.547111 29.3836941,18.9368602 28.8876415,17.4566909 C28.698726,16.8929866 27.1849064,16.4727949 23.238405,11.8836291 C18.7806723,7.02933039 12.1940435,2.57331819 12.1940435,2.57331819 L11.9530888,0.570118291 C11.9530888,0.570118291 9.18901213,0.31815958 5.96560528,1.46546491 C2.74219843,2.61277025 1.45564298,3.51077421 1.09161059,4.39751461 C-0.0126975655,7.08748031 1.6553386,9.72220311 2.47087191,10.9043128 C5.27082566,14.9628256 25.5088668,20.547111 25.5088668,20.547111 Z" id="Path-9" fill="#E1A23D"></path>
                        <path d="M29.7345522,24.9220779 C32.1440462,24.9220779 32.8767123,22.8784778 32.8767123,20.3346099 C32.8767123,17.790742 32.1440462,15.7402597 29.7345522,15.7402597 C28.2174446,15.7402597 26.6861116,16.5833229 25.7912235,17.8277211 C25.2648364,18.5596956 24.9863014,19.4172264 24.9863014,20.3593798 C24.9863014,21.6489781 25.4526017,22.9175518 26.3592069,23.7426769 C27.2409755,24.5451975 28.5465365,24.9220779 29.7345522,24.9220779 Z" id="Oval-5" fill="#B47714"></path>
                        <path d="M39.7891404,18.3625251 C39.7891404,18.3625251 33.5679533,19.2969261 33.1355128,26.6106926 C32.7030723,33.9244591 37.5863191,44.5566552 37.5863191,44.5566552 C37.5863191,44.5566552 40.3746557,41.4218156 41.9986251,35.8614994 C43.6225944,30.3011833 43.6289459,21.6472175 43.6289459,21.6472175 C43.6289459,21.6472175 41.7823162,20.5938255 41.1767875,20.0172941 C40.1924369,19.0800815 39.7891404,18.3625251 39.7891404,18.3625251 Z" id="Path-10-Copy-2" fill="#E1A23D" transform="translate(38.368672, 31.459590) scale(-1, 1) rotate(20.000000) translate(-38.368672, -31.459590) "></path>
                        <ellipse id="Oval-5" fill="#D39024" cx="30.9041096" cy="20.3311688" rx="4.60273973" ry="4.59090909"></ellipse>
                    </g>
                </g>
                <g id="Group-22">
                    <path d="M195.657448,54.3377316 C195.657448,62.3790989 186.68899,68.3130096 186.68899,68.3130096 C186.68899,68.3130096 181.027473,73.5624924 167.615339,77.9761708 C154.203205,82.3898492 144.873088,82.5200208 144.873088,82.5200208 C144.873088,82.5200208 148.035846,80.734481 156.34543,71.8147468 C157.789463,70.2646825 162.789522,64.1437934 164.171274,62.4150705 C165.553025,60.6863477 167.700419,57.8732011 169.647095,55.6077846 C172.25409,52.5739318 173.913358,51.2183239 176.447977,49.5171132 C185.638727,43.3483721 195.657448,46.2963644 195.657448,54.3377316 Z" id="Rectangle-6" fill="#6B3E2A"></path>
                    <path d="M57.6652958,56.2208485 C57.6652958,64.2622158 43.9662307,74.4214913 30.5540971,78.8351697 C17.1419634,83.2488481 0.852240587,84.4548121 0.852240587,84.4548121 C0.852240587,84.4548121 10.0083671,78.1588145 18.317951,69.2390803 C19.7619839,67.689016 23.2911746,64.2657372 25.4576287,62.4167097 C26.6041363,61.4381872 26.8542297,61.3616631 32.2138448,56.2208485 C37.5734599,51.080034 38.3147458,51.1845485 39.5395332,50.4033223 C47.8272524,45.1170307 57.6652958,48.1794812 57.6652958,56.2208485 Z" id="Rectangle-6" fill="#6B3E2A" transform="translate(29.258768, 66.114507) scale(-1, 1) translate(-29.258768, -66.114507) "></path>
                    <path d="M150.818431,88.7065904 C150.818431,129.961107 129.301928,115.062913 101.755938,115.062913 C74.2089576,115.062913 51.0645081,127.168594 51.0645081,88.7065904 C51.0645081,61.095819 73.3957261,36.8502435 100.941717,36.8502435 C128.487213,36.8502435 150.818431,61.095819 150.818431,88.7065904" id="Fill-10" fill="#191817"></path>
                    <path d="M101.535736,152.155844 C77.0426841,152.155844 57.0022416,132.150998 57.0022416,107.700357 L57.0022416,88.4370511 C57.0022416,83.7017305 57.7539617,79.1323455 59.1439532,74.8441156 C64.9327896,56.9880622 74.3253443,43.9825487 101.535736,43.9825487 C128.746621,43.9825487 136.717616,55.9185897 143.140285,72.620972 C145.030436,77.5404467 146.068244,82.8725447 146.068244,88.4370511 L146.068244,107.700357 C146.068244,132.150998 126.028295,152.155844 101.535736,152.155844 Z" id="Fill-12" fill="#F3CFB9"></path>
                    <path d="M103.968319,136.110445 C100.681749,137.2882 97.0680218,136.687305 94.3037009,134.500045 C93.7484355,134.061391 93.6523896,133.256191 94.0936005,132.697358 C94.5318099,132.14153 108.749604,127.042932 109.43093,127.19616 C110.124261,127.346384 110.56247,128.0284 110.412399,128.722435 C109.665041,132.16857 107.25489,134.93269 103.968319,136.110445" id="Fill-164" fill="#3D3229" transform="translate(102.129016, 131.947646) rotate(20.000000) translate(-102.129016, -131.947646) "></path>
                    <path d="M127.067497,101.04099 C125.757165,101.04099 124.692403,99.9744028 124.692403,98.6644929 C124.692403,97.354114 125.757165,96.2861201 127.067497,96.2861201 C128.377829,96.2861201 129.44259,97.354114 129.44259,98.6644929 C129.44259,99.9744028 128.377829,101.04099 127.067497,101.04099" id="Fill-14" fill="#3D3229"></path>
                    <path d="M74.8154421,101.04099 C73.5051104,101.04099 72.4403487,99.9744028 72.4403487,98.6644929 C72.4403487,97.354114 73.5051104,96.2861201 74.8154421,96.2861201 C76.1257738,96.2861201 77.1905355,97.354114 77.1905355,98.6644929 C77.1905355,99.9744028 76.1257738,101.04099 74.8154421,101.04099" id="Fill-16" fill="#3D3229"></path>
                    <path d="M101.126231,99.8533498 C98.5511191,99.7946151 96.3903372,102.145461 96.3257788,105.072975 L96.1928076,111.062461 C96.1272855,113.992888 98.1815941,116.435961 100.756706,116.49324 C103.333264,116.551975 105.492601,114.204041 105.557159,111.273615 L105.69013,105.284128 C105.755652,102.355158 103.702789,99.9120846 101.126231,99.8533498" id="Fill-30" fill="#F4AE82"></path>
                    <path d="M135.380324,106.390219 C135.380324,101.466157 139.367493,97.4748377 144.286435,97.4748377 C149.204889,97.4748377 153.193524,101.466157 153.193524,106.390219 C153.193524,111.314282 149.204889,115.305601 144.286435,115.305601 C139.367493,115.305601 135.380324,111.314282 135.380324,106.390219" id="Fill-36" fill="#F3CFB9"></path>
                    <path d="M47.501868,106.390219 C47.501868,101.466157 51.489037,97.4748377 56.4079794,97.4748377 C61.3264329,97.4748377 65.3150685,101.466157 65.3150685,106.390219 C65.3150685,111.314282 61.3264329,115.305601 56.4079794,115.305601 C51.489037,115.305601 47.501868,111.314282 47.501868,106.390219" id="Fill-39" fill="#F3CFB9"></path>
                    <path d="M8.0556387,48.010571 C20.1540824,45.6388459 57.8758723,58.3746612 64.6224866,61.4477068 C74.4599267,65.9286065 86.7647741,67.9069531 96.2930724,67.9069531 C107.842149,67.9069531 121.681529,68.1159764 135.159094,63.3308237 C143.279306,60.4477764 154.942225,52.7090282 167.391264,49.0586523 C179.840302,45.4082764 183.943775,46.2380064 186.909453,46.2380064 C165.45995,48.010571 161.605055,95.7516375 98.4514651,94.9928113 C38.7739241,94.7708809 32.2519892,51.3229214 8.0556387,48.010571 Z" id="Rectangle" fill="#815428"></path>
                    <path d="M84.9821148,0.627754204 C91.9693519,-1.59400183 93.7062356,7.0319179 100.653928,6.23745668 C109.675606,5.20583729 109.13404,-1.39660482 117.106466,0.627754204 C123.046382,2.13601842 125.071309,4.67826995 131.15614,15.0555739 C137.240971,25.4328779 144.203824,51.0710045 144.203824,51.0710045 C144.203824,51.0710045 120.729923,58.8415798 98.8849244,58.8415798 C77.0399262,58.8415798 57.1040313,51.0710045 57.1040313,51.0710045 C57.1040313,51.0710045 62.0738214,26.6872296 69.7001995,15.0555739 C77.3265775,3.42391819 80.0229024,2.20465219 84.9821148,0.627754204 Z" id="Rectangle-3" fill="#815428"></path>
                    <path d="M113.864163,7.60618135 C114.412188,7.25632721 115.347227,7.20091456 115.923497,7.50718367 C115.923497,7.50718367 119.927289,9.05009108 120.578176,13.1873967 C120.910143,15.2975143 120.177167,17.9374391 118.825168,19.9532606 C117.526304,21.8898584 115.684654,23.3834145 115.684654,23.3834145 C115.199546,23.8102427 114.411744,23.7945626 113.961633,23.3358821 C113.961633,23.3358821 110.531022,20.5993808 110.531022,15.5254949 C110.531022,13.5440778 110.709613,11.472835 111.345124,10.2498492 C112.336989,8.34109126 113.864163,7.60618135 113.864163,7.60618135 Z" id="Rectangle-4" fill="#6B3E2A" transform="translate(115.594293, 15.497783) rotate(9.000000) translate(-115.594293, -15.497783) "></path>
                    <path d="M84.1524863,7.61787153 C84.7185363,7.29064239 85.6681882,7.23126238 86.2571211,7.51403938 C86.2571211,7.51403938 90.2482498,8.89966578 90.8991369,12.6325137 C91.2311038,14.536349 90.4981283,16.9181981 89.1461292,18.7369555 C87.8472649,20.484234 86.0393454,21.8039886 86.0393454,21.8039886 C85.5356084,22.2044405 84.7173184,22.1892613 84.241411,21.7490173 C84.241411,21.7490173 80.8519832,19.3199118 80.8519832,14.7420424 C80.8519832,12.9543261 81.0305745,11.0855654 81.6660854,9.9821371 C82.65795,8.25997687 84.1524863,7.61787153 84.1524863,7.61787153 Z" id="Rectangle-4" fill="#6B3E2A" transform="translate(85.915254, 14.710526) scale(-1, 1) rotate(9.000000) translate(-85.915254, -14.710526) "></path>
                    <path d="M55.0902007,52.2243666 C55.3886281,50.9420889 56.6347128,50.2788008 57.8663996,50.716824 C57.8663996,50.716824 76.5807804,58.1587476 99.7058924,58.1587476 C122.831004,58.1587476 143.309376,50.6645175 143.309376,50.6645175 C144.551972,50.2437207 145.851786,50.9315512 146.206807,52.180482 L147.579863,57.0107653 C147.760087,57.6447784 147.470615,58.4470495 146.910919,58.8061729 C146.910919,58.8061729 145.559295,59.7631717 141.151559,62.17025 C131.879093,67.2339714 114.94765,69.6237459 99.7058924,69.6237459 C90.2312158,69.6237459 76.5026327,68.3632785 69.1167453,65.4310277 C66.6827615,64.4647185 68.1168192,65.1888576 64.9139852,63.8616689 C59.5242022,61.6282534 54.7316042,58.7527423 54.7316042,58.7527423 C54.1668792,58.4246881 53.8292758,57.6422884 53.9762516,57.0107653 L55.0902007,52.2243666 Z" id="Rectangle-2" fill="#52340C"></path>
                </g>
            </g>
        </g>
    </g>
</svg>